<svg width="180" height="137" viewBox="0 0 180 137" fill="none" xmlns="http://www.w3.org/2000/svg">
<path d="M80 0.25L89.0885 77.5547L130 87.75L170.911 77.5547L180 0.25H80ZM161.536 15.875L160.286 25.1133L130.26 34.7422L130.182 34.7617H159.219L155.885 63.3945L130.312 69L104.583 63.2969L102.917 48.8633H115.651L116.484 56.3438L130.182 58.9414L144.427 55.9336L145.391 43.9023L102.083 43.8047V43.7852L102.031 43.8047L101.094 34.7617L130.286 25.6406L131.979 25.1133H99.974L98.4635 15.875H161.536Z" fill="white"/>
<path d="M0 36L9.08854 124.789L49.8698 136.499L90.9115 124.789L100 36H0ZM80.2604 64.6916H32.3958L33.4635 75.7734H79.1927L75.651 109.064L50.1562 115.121V115.188H49.8698L24.1667 109.064L22.6042 92.0597H35.026L35.9375 100.607L49.8698 103.859L63.8542 100.607L65.4167 86.6534H21.9531L18.6198 53.9911H81.4062L80.2604 64.6916Z" fill="white"/>
</svg>
