<svg width="100" height="100" viewBox="0 0 100 100" fill="none" xmlns="http://www.w3.org/2000/svg">
<g clip-path="url(#clip0_111_2818)">
<path d="M72.3281 61.1133C74.8802 59.8047 78.4218 58.6719 78.4218 58.6719C78.4218 58.6719 68.3437 60.0391 58.3177 60.6641C46.052 61.4258 32.875 61.582 26.2604 60.918C10.6093 59.3555 34.8541 55.0391 34.8541 55.0391C34.8541 55.0391 25.4531 54.5703 13.8645 58.75C0.192662 63.7109 47.7187 65.9766 72.3281 61.1133ZM50.0885 54.8438C45.1406 46.5039 28.4479 39.1797 50.0885 26.3672C77.0833 10.3906 63.2395 0 63.2395 0C68.8385 16.5039 43.552 21.5039 34.4114 31.7578C28.1875 38.7695 37.4583 46.2891 50.0885 54.8438ZM79.9322 20.4297C79.9583 20.4297 34.3072 28.9844 56.1041 47.8125C62.5364 53.3594 54.4114 58.3594 54.4114 58.3594C54.4114 58.3594 70.7395 52.0313 63.2395 44.1211C56.2343 36.7383 50.8697 33.0664 79.9322 20.4297ZM78.3437 73.2617C78.2014 73.4478 78.0262 73.6186 77.8229 73.7695C111.234 67.1875 98.9427 50.5469 82.9791 54.7656C82.1169 55.0032 81.372 55.4325 80.8437 55.9961C81.7759 55.7431 82.7339 55.5471 83.7083 55.4102C91.7812 54.1406 103.37 63.5156 78.3437 73.2617ZM90.6249 85.4297C90.6249 85.4297 94.401 87.7539 86.4843 89.5703C71.4062 92.9883 23.776 94.0234 10.5468 89.707C5.7812 88.1641 14.7135 85.9961 17.526 85.5469C20.4427 85.0781 22.1354 85.1563 22.1354 85.1563C16.8489 82.3633 -12.0573 90.6445 7.44787 93.0078C60.6354 99.4922 104.427 90.0977 90.6249 85.4297ZM32.4062 77.3438C11.9114 81.6406 44.8802 90.5078 70.9739 82.1289C68.429 81.3874 65.9724 80.4857 63.6302 79.4336C51.9895 81.0938 46.5989 81.2109 36.026 80.3125C27.302 79.5703 32.4062 77.3438 32.4062 77.3438ZM79.2291 96.3281C58.7343 99.2188 33.4479 98.8867 18.4739 97.0313C18.4739 97.0117 21.5468 98.9258 37.3281 99.6875C61.3385 100.84 98.2135 99.043 99.0729 90.5274C99.0729 90.5274 97.4062 93.75 79.2291 96.3281ZM67.875 68.9453C52.4583 71.1719 43.526 71.1133 32.25 70.2344C23.526 69.5508 29.2291 66.3867 29.2291 66.3867C6.62495 72.0117 41.7812 78.3789 73.3697 71.4453C71.3281 70.9046 69.4575 70.0535 67.875 68.9453Z" fill="white"/>
</g>
<defs>
<clipPath id="clip0_111_2818">
<rect width="100" height="100" fill="white"/>
</clipPath>
</defs>
</svg>
