<svg width="100" height="100" viewBox="0 0 100 100" fill="none" xmlns="http://www.w3.org/2000/svg">
<path d="M50 20.4102C76.7812 20.4102 97.375 34.5117 97.375 50C97.375 65.4883 76.7656 79.5898 50 79.5898C23.2188 79.5898 2.625 65.4883 2.625 50C2.625 34.5117 23.2344 20.4102 50 20.4102ZM50 17.1289C22.3906 17.1289 0 31.8359 0 50C0 68.1641 22.3906 82.8711 50 82.8711C77.6094 82.8711 100 68.1641 100 50C100 31.8359 77.6094 17.1289 50 17.1289ZM34.0938 47.3633C32.8594 55.2734 28.5 54.4531 23.1406 54.4531L25.2812 40.6641C31.2188 40.6641 35.25 39.8633 34.0938 47.3633ZM15.2188 68.418H20.9531L22.3125 59.668C28.7344 59.668 32.7188 60.2539 36.4062 55.9375C40.4844 51.25 41.5469 42.9102 38.6406 38.7305C37.125 36.543 34.6875 35.4688 31.375 35.4688H20.3281L15.2188 68.418ZM44.2344 26.6992H49.9375L48.5781 35.4492C53.5 35.4492 58.0625 35 60.2656 37.5391C62.5781 40.1953 61.4688 43.5938 58.9688 59.6289H53.1875C55.5938 44.1211 56.0469 42.832 55.1719 41.6602C54.3281 40.5273 52.4063 40.7617 47.7656 40.7617L44.8281 59.6289H39.125L44.2344 26.6992ZM78.9062 47.3633C77.6562 55.3906 73.1719 54.4531 67.9531 54.4531L70.0938 40.6641C76.0625 40.6641 80.0625 39.8633 78.9062 47.3633ZM60.0312 68.418H65.7812L67.1406 59.668C73.8906 59.668 77.625 60.1563 81.2344 55.9375C85.3125 51.25 86.375 42.9102 83.4688 38.7305C81.9531 36.543 79.5156 35.4688 76.2031 35.4688H65.1562L60.0312 68.418Z" fill="white"/>
</svg>
